<svg width="29" height="28" viewBox="0 0 29 28" fill="none" xmlns="http://www.w3.org/2000/svg">
<g clip-path="url(#clip0_617_576)">
<path d="M20.2222 14.5L22.4241 15.8155C25.4902 18.2759 27.1954 20.4508 26.6069 21.469C25.6772 23.0758 19.3788 21.1836 12.5393 17.2425C5.69985 13.3014 0.908246 8.80411 1.8374 7.19789C2.41864 6.19373 5.09673 6.55623 8.69356 7.93173C9.53643 8.28781 11.3222 9.09998 11.7222 9.49998" stroke="#5856D6" stroke-width="2" stroke-miterlimit="10"/>
<path fill-rule="evenodd" clip-rule="evenodd" d="M18.7258 21.3458C19.3339 20.9545 19.8877 20.4862 20.3736 19.9548C18.1591 19.1066 15.6301 17.8945 13.04 16.402C10.4444 14.9064 8.12097 13.3214 6.27276 11.8258C6.05877 12.5048 5.92938 13.2214 5.89697 13.9632C7.58128 15.2905 9.6783 16.709 12.0391 18.0694C14.4183 19.4404 16.7173 20.5515 18.7258 21.3458ZM16.1719 22.4371C14.5433 21.7067 12.8061 20.8196 11.0405 19.8023C9.2951 18.7965 7.67272 17.7503 6.23517 16.7181C7.26089 20.1583 10.4486 22.6664 14.2221 22.6664C14.8936 22.6664 15.5465 22.587 16.1719 22.4371ZM14.0386 14.6692C16.7587 16.2366 19.3739 17.4643 21.5701 18.2673C22.1988 17.0956 22.5554 15.756 22.5554 14.3332C22.5554 9.73091 18.8244 6 14.2221 6C11.2295 6 8.60526 7.57753 7.13571 9.94638C8.93009 11.4443 11.3079 13.0957 14.0386 14.6692Z" fill="#5856D6"/>
</g>
<defs>
<clipPath id="clip0_617_576">
<rect width="28" height="28" fill="white" transform="translate(0.722168)"/>
</clipPath>
</defs>
</svg>
