<svg width="28" height="28" viewBox="0 0 28 28" fill="none" xmlns="http://www.w3.org/2000/svg">
<path fill-rule="evenodd" clip-rule="evenodd" d="M14.0909 4C9.07778 4 5 8.03793 5 12.9998L5.05152 20.9997C5.29899 22.6907 6.75859 23.9996 8.53535 23.9996C9.72121 23.9996 10.6303 23.5826 11.2343 22.8257C11.61 23.199 12.0566 23.4951 12.5485 23.6966C13.0403 23.8982 13.5676 24.0013 14.0999 24C14.6322 23.9987 15.159 23.893 15.6498 23.689C16.1407 23.4851 16.5858 23.1869 16.9596 22.8117C17.5667 23.5736 18.4788 23.9996 19.6465 23.9996C21.596 23.9996 23.1818 22.4297 23.1818 20.4997V12.9998C23.1818 8.03793 19.104 4 14.0909 4ZM10.9234 14.9661C12.1507 14.9661 13.1456 13.9712 13.1456 12.7439C13.1456 11.5166 12.1507 10.5217 10.9234 10.5217C9.69609 10.5217 8.70117 11.5166 8.70117 12.7439C8.70117 13.9712 9.69609 14.9661 10.9234 14.9661ZM19.8121 12.7439C19.8121 13.9712 18.8172 14.9661 17.5899 14.9661C16.3626 14.9661 15.3677 13.9712 15.3677 12.7439C15.3677 11.5166 16.3626 10.5217 17.5899 10.5217C18.8172 10.5217 19.8121 11.5166 19.8121 12.7439Z" fill="#5856D6"/>
</svg>
