<svg width="9" height="16" viewBox="0 0 9 16" fill="none" xmlns="http://www.w3.org/2000/svg">
<path d="M1.52051 15.2202C1.73633 15.2202 1.91895 15.1372 2.06006 14.9961L8.64258 8.56299C8.80029 8.40527 8.8833 8.21436 8.8833 8.00684C8.8833 7.79102 8.80029 7.5918 8.64258 7.45068L2.06836 1.02588C1.91895 0.876465 1.73633 0.793457 1.52051 0.793457C1.08887 0.793457 0.765137 1.12549 0.765137 1.55713C0.765137 1.75635 0.848145 1.95557 0.980957 2.09668L7.02393 8.00684L0.980957 13.917C0.848145 14.0581 0.765137 14.249 0.765137 14.4565C0.765137 14.8882 1.08887 15.2202 1.52051 15.2202Z" fill="#C7C7CC"/>
</svg>
